<?xml version="1.0" encoding="utf-8"?>
<!-- Generator: Adobe Illustrator 17.1.0, SVG Export Plug-In . SVG Version: 6.00 Build 0)  -->
<!DOCTYPE svg PUBLIC "-//W3C//DTD SVG 1.1//EN" "http://www.w3.org/Graphics/SVG/1.1/DTD/svg11.dtd">
<svg version="1.1" id="Layer_1" xmlns="http://www.w3.org/2000/svg" xmlns:xlink="http://www.w3.org/1999/xlink" x="0px" y="0px"
	 viewBox="0 0 88 88" enable-background="new 0 0 88 88" xml:space="preserve">
<title>Texas Star</title>
<g>
	<title>Layer 1</title>
	<path id="path2355" marker-end="none" marker-start="none" marker-mid="none" fill="#D7AED1" d="M44.3,46.6c0,0.2-6.7-8.9-9-11.8
		c0,0,2.2,2.9,0,0C37.5,26,44.2,0,44.2,0S44.3,35,44.3,46.6z"/>
	<path id="path4704" marker-end="none" marker-start="none" marker-mid="none" fill="#C54046" d="M44.3,0v46.4l8.9-11.7h0
		C53.2,34.6,46.5,8.6,44.3,0z"/>
	<path id="path2339" marker-end="none" marker-start="none" marker-mid="none" fill="#D7AED1" d="M53.2,34.6l35.2-2l-44.1,14
		L53.2,34.6z"/>
	<path id="path2341" marker-end="none" marker-start="none" marker-mid="none" fill="#C54046" d="M44.2,46.5l44-13.8L58.6,52.1
		L44.2,46.5z"/>
	<path id="path2343" marker-end="none" marker-start="none" marker-mid="none" fill="#D7AED1" d="M71.4,85.4L58.6,52l-14.3-5.4
		L71.4,85.4z"/>
	<path id="path2345" marker-end="none" marker-start="none" marker-mid="none" fill="#C54046" d="M71.4,85.4L44.3,46.5l-0.1,16
		L71.4,85.4z"/>
	<path id="path2347" marker-end="none" marker-start="none" marker-mid="none" fill="#D7AED1" d="M16.8,85.3l27.5-38.8l0,16.1
		L16.8,85.3z"/>
	<path id="path2349" marker-end="none" marker-start="none" marker-mid="none" fill="#C54046" d="M44.2,46.5L16.8,85.4l12.9-33.6
		L44.2,46.5z"/>
	<path id="path2351" marker-end="none" marker-start="none" marker-mid="none" fill="#D7AED1" d="M44.3,46.4l-14.6,5.4L0,32.5
		L44.3,46.4"/>
	<path id="path2353" marker-end="none" marker-start="none" marker-mid="none" fill="#C54046" d="M44.3,46.6L0,32.4l35.2,2.2
		L44.3,46.6z"/>
</g>
</svg>
